<?xml version="1.0" encoding="utf-8"?>
<!-- Generator: Adobe Illustrator 16.2.0, SVG Export Plug-In . SVG Version: 6.00 Build 0)  -->
<!DOCTYPE svg PUBLIC "-//W3C//DTD SVG 1.1//EN" "http://www.w3.org/Graphics/SVG/1.1/DTD/svg11.dtd">
<svg version="1.1" id="logo" xmlns="http://www.w3.org/2000/svg" xmlns:xlink="http://www.w3.org/1999/xlink" x="0px" y="0px"
	 width="446.049px" height="72px" viewBox="0 0 446.049 72" enable-background="new 0 0 446.049 72" xml:space="preserve">
<path fill="#414141" d="M2.3,23.951h10.89c5.115,0,8.815,0.765,11.101,2.294c2.285,1.529,3.428,3.946,3.428,7.251
	c0,2.285-0.637,4.17-1.912,5.656c-1.275,1.485-3.134,2.447-5.577,2.887v0.264c5.854,1.002,8.78,4.078,8.78,9.229
	c0,3.445-1.165,6.135-3.494,8.068c-2.33,1.934-5.586,2.9-9.769,2.9H2.3V23.951z M6.782,40.457h7.383c3.164,0,5.44-0.496,6.829-1.49
	c1.388-0.992,2.083-2.666,2.083-5.022c0-2.162-0.774-3.722-2.32-4.68c-1.547-0.958-4.008-1.437-7.383-1.437H6.782V40.457z
	 M6.782,44.254v14.423h8.042c3.111,0,5.454-0.603,7.027-1.806c1.573-1.204,2.36-3.09,2.36-5.656c0-2.391-0.804-4.148-2.413-5.273
	s-4.057-1.688-7.343-1.688H6.782z M55.697,62.5l-0.87-4.113h-0.211c-1.441,1.811-2.878,3.037-4.311,3.678
	c-1.433,0.643-3.221,0.963-5.366,0.963c-2.865,0-5.111-0.738-6.737-2.215c-1.626-1.477-2.439-3.576-2.439-6.302
	c0-5.836,4.667-8.895,14.001-9.176l4.904-0.158v-1.793c0-2.268-0.488-3.942-1.463-5.022c-0.976-1.082-2.536-1.622-4.68-1.622
	c-2.409,0-5.133,0.738-8.174,2.215l-1.345-3.349c1.424-0.773,2.983-1.38,4.68-1.819c1.696-0.439,3.397-0.659,5.102-0.659
	c3.445,0,5.999,0.765,7.66,2.294s2.492,3.981,2.492,7.356V62.5H55.697z M45.81,59.415c2.725,0,4.865-0.747,6.42-2.241
	s2.333-3.586,2.333-6.275v-2.61l-4.377,0.185c-3.48,0.123-5.99,0.664-7.528,1.621c-1.539,0.959-2.307,2.449-2.307,4.47
	c0,1.582,0.479,2.786,1.437,3.612C42.747,59.002,44.086,59.415,45.81,59.415z M80.803,63.027c-4.184,0-7.422-1.287-9.716-3.863
	c-2.294-2.574-3.441-6.218-3.441-10.929c0-4.834,1.164-8.569,3.494-11.206c2.329-2.637,5.646-3.955,9.954-3.955
	c1.388,0,2.777,0.149,4.166,0.448c1.389,0.299,2.479,0.65,3.27,1.055l-1.345,3.718c-0.967-0.387-2.021-0.707-3.164-0.963
	c-1.143-0.254-2.153-0.382-3.032-0.382c-5.871,0-8.807,3.744-8.807,11.232c0,3.551,0.716,6.275,2.149,8.174
	c1.433,1.898,3.555,2.848,6.368,2.848c2.408,0,4.878-0.519,7.409-1.556v3.876C86.173,62.526,83.738,63.027,80.803,63.027z
	 M116.033,62.5V43.806c0-2.355-0.536-4.113-1.608-5.273s-2.751-1.74-5.036-1.74c-3.041,0-5.26,0.827-6.658,2.479
	c-1.396,1.652-2.096,4.36-2.096,8.121V62.5h-4.377V21.473h4.377v12.419c0,1.494-0.07,2.733-0.211,3.718h0.264
	c0.861-1.389,2.087-2.482,3.678-3.283c1.591-0.8,3.406-1.2,5.445-1.2c3.533,0,6.184,0.84,7.949,2.518
	c1.768,1.679,2.65,4.347,2.65,8.002V62.5H116.033z M219.359,62.5l-13.078-34.172h-0.211c0.246,2.707,0.369,5.924,0.369,9.65V62.5
	h-4.14V23.951h6.75l12.208,31.799h0.211l12.313-31.799h6.697V62.5h-4.482V37.662c0-2.848,0.122-5.941,0.369-9.281h-0.211
	L222.972,62.5H219.359z M263.238,63.027c-4.184,0-7.422-1.287-9.717-3.863c-2.293-2.574-3.44-6.218-3.44-10.929
	c0-4.834,1.164-8.569,3.493-11.206c2.33-2.637,5.646-3.955,9.954-3.955c1.388,0,2.777,0.149,4.166,0.448
	c1.388,0.299,2.479,0.65,3.27,1.055l-1.345,3.718c-0.967-0.387-2.021-0.707-3.164-0.963c-1.143-0.254-2.153-0.382-3.032-0.382
	c-5.871,0-8.807,3.744-8.807,11.232c0,3.551,0.716,6.275,2.149,8.174c1.432,1.898,3.555,2.848,6.367,2.848
	c2.408,0,4.878-0.519,7.409-1.556v3.876C268.607,62.526,266.174,63.027,263.238,63.027z M307.196,62.5h-5.273l-14.054-18.694
	l-4.034,3.586V62.5h-4.482V23.951h4.482v19.116l17.481-19.116h5.3l-15.504,16.743L307.196,62.5z M325.341,63.027
	c-4.271,0-7.643-1.301-10.112-3.902s-3.704-6.213-3.704-10.837c0-4.657,1.147-8.358,3.44-11.101
	c2.295-2.742,5.375-4.113,9.242-4.113c3.621,0,6.486,1.191,8.596,3.572c2.109,2.383,3.164,5.524,3.164,9.427v2.769H316.06
	c0.088,3.393,0.944,5.969,2.571,7.726c1.625,1.758,3.915,2.637,6.868,2.637c3.111,0,6.188-0.649,9.229-1.951v3.902
	c-1.547,0.669-3.011,1.147-4.39,1.437C328.957,62.883,327.292,63.027,325.341,63.027z M324.154,36.739
	c-2.32,0-4.171,0.756-5.551,2.268c-1.38,1.513-2.192,3.604-2.438,6.275h15.108c0-2.759-0.615-4.874-1.846-6.341
	C328.197,37.474,326.439,36.739,324.154,36.739z M364.5,62.5V43.806c0-2.355-0.536-4.113-1.608-5.273s-2.751-1.74-5.036-1.74
	c-3.023,0-5.238,0.817-6.645,2.452s-2.109,4.334-2.109,8.095V62.5h-4.377V33.602h3.56l0.712,3.955h0.211
	c0.896-1.424,2.153-2.527,3.771-3.309c1.617-0.782,3.419-1.173,5.405-1.173c3.48,0,6.1,0.84,7.857,2.518
	c1.758,1.679,2.637,4.364,2.637,8.055V62.5H364.5z M397.648,62.5h-20.962v-2.979l15.768-22.518h-14.792v-3.401h19.591v3.401
	l-15.557,22.096h15.952V62.5z M405.352,25.771c0-1.002,0.246-1.736,0.738-2.202c0.492-0.465,1.107-0.699,1.846-0.699
	c0.703,0,1.31,0.237,1.819,0.712s0.765,1.204,0.765,2.188c0,0.985-0.255,1.718-0.765,2.202c-0.51,0.484-1.116,0.725-1.819,0.725
	c-0.738,0-1.354-0.241-1.846-0.725C405.598,27.489,405.352,26.755,405.352,25.771z M410.098,62.5h-4.377V33.602h4.377V62.5z
	 M432.883,63.027c-4.271,0-7.643-1.301-10.112-3.902s-3.704-6.213-3.704-10.837c0-4.657,1.147-8.358,3.44-11.101
	c2.295-2.742,5.375-4.113,9.242-4.113c3.621,0,6.486,1.191,8.596,3.572c2.109,2.383,3.164,5.524,3.164,9.427v2.769h-19.907
	c0.088,3.393,0.944,5.969,2.571,7.726c1.625,1.758,3.915,2.637,6.868,2.637c3.111,0,6.188-0.649,9.229-1.951v3.902
	c-1.547,0.669-3.011,1.147-4.39,1.437C436.499,62.883,434.834,63.027,432.883,63.027z M431.696,36.739
	c-2.32,0-4.171,0.756-5.551,2.268c-1.38,1.513-2.192,3.604-2.438,6.275h15.108c0-2.759-0.615-4.874-1.846-6.341
	C435.739,37.474,433.981,36.739,431.696,36.739z"/>
<path fill="#9DC610" d="M170.973,60.815l-0.005-0.003L170.973,60.815L182.25,36.5l-22.073-10.807L160.5,25l10.001-22.25L164.25,0
	L140,53.5L180.25,72l2.75-5.75L170.973,60.815z M156.917,32.687L172.25,40l-8.123,17.405l-0.361-0.18L149,50.25L156.917,32.687z"/>
</svg>
